<?xml version="1.0" encoding="UTF-8"?>
<svg id="Layer_2" data-name="Layer 2" xmlns="http://www.w3.org/2000/svg" viewBox="0 0 522.3 556.39">
<defs>
<style>
.cls-1, .cls-2, .cls-3, .cls-4, .cls-5, .cls-6, .cls-7 {
stroke-width: 0px;
}
.cls-2 {
fill: #deacce;
}
.cls-3 {
fill: #90a1b4;
}
.cls-4 {
fill: #db83b6;
}
.cls-5 {
fill: #fff;
}
.cls-6 {
fill: #231f20;
}
.cls-7 {
fill: #fbf7e6;
}
</style>
</defs>
<g id="Layer_1-2" data-name="Layer 1">
<path class="cls-3" d="m219.25,425.16c-.03-.16-.09-.32-.09-.48,0-.06.11-.13.17-.19-.03.22-.05.45-.08.67Z"/>
<g>
<path class="cls-1" d="m250.47,553.89c-2.18,0-4.38-.06-6.54-.17-2.45-.13-4.77-.4-6.14-2.3-1.34-1.87-.93-4.24-.28-6.52,5.81-20.47-2.15-38.62-11.62-55.18l-.13-.26-.06-.14c-.21-.55-.67-1.56-.94-2.15l-3.17-3.68c-20.9-24.25-42.51-49.33-59.72-76.45-9.29-14.65-16.59-28.7-22.31-42.94-6.43-16.02-10.7-31.87-13.07-48.46-3.5-24.52-17.89-37.28-24.8-43.41-1.38-1.22-2.48-2.2-3.25-3.04-27.07-23.73-37.45-33.92-56.5-63.42-14.21-22.02-20.36-47.85-19.36-81.29.07-2.25.5-4.4.91-6.48.18-.9.35-1.78.5-2.64,1.3-11.38,6.72-18.16,16.1-20.18,1.43-.31,2.83-.46,4.16-.46,10.92,0,15.37,10.59,16.83,14.07,12.66,30.17,34.57,48.56,65.1,54.66,5.38,1.08,4.93,5.8,4.76,7.57-.22,2.3-.69,7.13-.69,7.13-.45,4.64-.92,9.42-1.35,14.13-.09.94.05,1.7.38,2.08.27.31.78.5,1.51.55.09,0,.17,0,.26,0,.63,0,1.17,0,1.44-2.52,2.05-19.51,5.83-37.74,11.24-54.2,5.63-17.13,13.19-32.84,22.46-46.69,9.61-14.36,21.34-27.12,34.86-37.95,13.95-11.16,30.2-20.57,48.29-27.96,21.27-8.69,42.33-13.1,62.6-13.1,31.07,0,60.04,10.24,86.12,30.44,22.45,17.39,37.87,38.51,45.82,62.78,7.6,23.18,8.47,49.49,2.6,78.18-4.22,20.29-11.69,39.72-18.91,58.51-2.5,6.52-5.07,13.18-7.45,19.78l-.05.9v1.99c5.57,45.22,40.33,63.07,70,73.57,1.54.55,3.17,1.07,4.74,1.58,10.56,3.4,22.49,7.24,24.44,22.58l.33.15-.16,1.54.02.28-.08.21-.07.63-.12.95c1.36,15.85-12.09,28.35-34.36,31.87-5.13.81-10.4,1.22-15.66,1.22-21.48,0-43.41-6.92-61.73-19.48-2.56-1.65-6.12-3.94-7.43-4.09-.85,1.21-1.39,6.82-1.96,12.74-.61,6.31-1.45,14.95-3.14,26.23-.35,2.7-.71,5.54-.95,8.21-1.52,17.36-6.58,34.33-15.05,50.44-8.12,15.45-18.98,29.41-32.28,41.48-13.26,12.04-28.19,21.52-44.38,28.19-16.79,6.92-34.09,10.45-51.43,10.49h-.35Z"/>
<path class="cls-1" d="m311.96,15c30.5,0,58.96,10.07,84.59,29.92,22.05,17.08,37.18,37.8,44.98,61.58,7.46,22.77,8.31,48.64,2.52,76.9-4.18,20.08-11.61,39.41-18.79,58.11-2.54,6.6-5.16,13.42-7.6,20.17l-.07,1.34v2.21c5.69,46.69,41.29,65.02,71.67,75.77,1.58.56,3.22,1.09,4.81,1.6,10.63,3.42,21.63,6.97,22.86,21.84l-.02.05h.02s-.09.85-.09.85l-.15,1.19c1.41,14.57-11.24,26.12-32.23,29.45-5,.79-10.14,1.19-15.27,1.19-20.98,0-42.41-6.76-60.32-19.04-4.44-2.86-7.18-4.53-8.97-4.53-4.57,0-2.93,10.94-7.45,41.11-.36,2.77-.73,5.64-.97,8.36-1.49,17.03-6.46,33.68-14.77,49.49-7.98,15.19-18.67,28.92-31.75,40.79-13.04,11.84-27.73,21.17-43.65,27.73-16.49,6.8-33.47,10.26-50.49,10.3h-.35c-2.13,0-4.29-.06-6.41-.17-2.24-.12-3.58-.35-4.23-1.26-.59-.82-.56-2.09.09-4.38,6.07-21.36-2.11-40.07-11.85-57.1l-.02-.04c-.32-.83-1.03-2.36-1.15-2.62l-3.4-3.94c-20.84-24.19-42.39-49.2-59.5-76.16-9.21-14.52-16.44-28.43-22.1-42.54-6.35-15.83-10.57-31.49-12.91-47.88-4.33-30.33-24.58-43.19-28.77-47.89-26.28-23.02-36.91-33.18-56.15-62.99-15.43-23.91-19.82-51.07-18.96-79.86.06-2.04.47-4.09.87-6.07.18-.91.37-1.86.52-2.79,1.17-10.37,5.8-16.29,14.15-18.08,1.26-.27,2.49-.41,3.64-.41,8.3,0,12.26,7.15,14.52,12.54,13,30.98,35.52,49.87,66.92,56.14,3.17.63,2.94,2.99,2.76,4.88-.22,2.3-.44,4.59-.67,6.89-.46,4.72-.94,9.59-1.37,14.39-.15,1.65.18,3.01.96,3.93.72.85,1.81,1.33,3.24,1.42.15,0,.29.01.43.01,2.4,0,3.57-1.42,3.92-4.75,2.03-19.33,5.78-37.39,11.13-53.68,5.56-16.92,13.01-32.42,22.16-46.08,9.47-14.14,21.03-26.72,34.35-37.38,13.76-11.01,29.8-20.3,47.68-27.6,20.97-8.57,41.71-12.91,61.65-12.91m0-5c-20.59,0-41.97,4.47-63.54,13.28-18.32,7.48-34.77,17.01-48.91,28.33-13.72,10.98-25.62,23.94-35.38,38.51-9.4,14.04-17.05,29.95-22.76,47.3-3.19,9.7-5.82,20.01-7.86,30.82-.07-.65-.2-1.34-.44-2.03-.55-1.58-2.12-4.37-6.37-5.22-29.67-5.93-50.97-23.82-63.29-53.17-1.62-3.86-6.55-15.6-19.13-15.6-1.5,0-3.08.18-4.69.52-7.24,1.56-16.24,6.69-18.05,22.28-.13.81-.31,1.67-.47,2.5-.42,2.08-.89,4.44-.96,6.9-1.02,33.97,5.26,60.26,19.76,82.72,19.19,29.74,29.65,40.02,56.85,63.86.85.91,1.96,1.9,3.34,3.12,6.69,5.94,20.62,18.29,23.99,41.9,2.39,16.79,6.72,32.83,13.22,49.04,5.77,14.39,13.14,28.57,22.52,43.35,17.3,27.27,38.98,52.42,59.93,76.75l2.94,3.41c.3.65.59,1.32.73,1.67l.07.18.08.18.08.18.12.21c9.2,16.08,16.94,33.67,11.38,53.25-.78,2.74-1.31,5.91.65,8.66,2.18,3.04,5.85,3.23,8.04,3.35,2.21.11,4.45.17,6.67.17h.35c17.67-.04,35.3-3.64,52.39-10.68,16.46-6.78,31.63-16.42,45.11-28.65,13.52-12.27,24.56-26.46,32.81-42.17,8.62-16.4,13.78-33.69,15.33-51.38.23-2.6.59-5.4.94-8.11,1.7-11.32,2.53-19.98,3.15-26.3.36-3.72.71-7.29,1.09-9.56,1.45.82,3.26,1.99,4.47,2.76,18.72,12.82,41.12,19.87,63.08,19.87,5.39,0,10.79-.42,16.05-1.26,11.27-1.78,20.64-5.85,27.11-11.75,6.69-6.11,10.01-14.1,9.37-22.53l.08-.67v-.03s0-.03,0-.03l.04-.36.16-.45-.05-.55.34-3.03-.74-.35c-2.65-15.81-15.51-19.95-25.96-23.32-1.55-.5-3.16-1.02-4.67-1.55-28.96-10.25-62.87-27.63-68.33-71.38v-1.77s.02-.46.02-.46c2.35-6.47,4.86-13.02,7.3-19.36,7.27-18.91,14.77-38.44,19.03-58.92,5.97-29.14,5.07-55.88-2.67-79.48-8.11-24.75-23.82-46.28-46.67-63.98-26.53-20.55-56.02-30.97-87.65-30.97h0Z"/>
</g>
<path class="cls-7" d="m216.89,484.72c.36.93.71,1.86,1.07,2.79-.36-.93-.71-1.86-1.07-2.79Z"/>
<path class="cls-3" d="m358.37,320.88c.24.74.49,1.49.73,2.23-.24-.74-.49-1.49-.73-2.23Z"/>
<path class="cls-3" d="m209.25,415.16c-.03-.16-.09-.32-.09-.48,0-.06.11-.13.17-.19-.03.22-.05.45-.08.67Z"/>
<g>
<g>
<path class="cls-6" d="m230.47,543.89c-2.18,0-4.38-.06-6.54-.17-2.45-.13-4.77-.4-6.14-2.3-1.34-1.87-.93-4.24-.28-6.52,5.81-20.47-2.15-38.62-11.62-55.18l-.13-.26-.06-.14c-.21-.55-.67-1.56-.94-2.15l-3.17-3.68c-20.9-24.25-42.51-49.33-59.72-76.45-9.29-14.65-16.59-28.7-22.31-42.94-6.43-16.02-10.7-31.87-13.07-48.46-3.5-24.52-17.89-37.28-24.8-43.41-1.38-1.22-2.48-2.2-3.25-3.04-27.07-23.73-37.45-33.92-56.5-63.42C7.75,173.75,1.6,147.92,2.61,114.47c.07-2.25.5-4.4.91-6.48.18-.9.35-1.78.5-2.64,1.3-11.38,6.72-18.16,16.1-20.18,1.43-.31,2.83-.46,4.16-.46,10.92,0,15.37,10.59,16.83,14.07,12.66,30.17,34.57,48.56,65.1,54.66,5.38,1.08,4.93,5.8,4.76,7.57-.22,2.3-.69,7.13-.69,7.13-.45,4.64-.92,9.42-1.35,14.13-.09.94.05,1.7.38,2.08.27.31.78.5,1.51.55.09,0,.17,0,.26,0,.63,0,1.17,0,1.44-2.52,2.05-19.51,5.83-37.74,11.24-54.2,5.63-17.13,13.19-32.84,22.46-46.69,9.61-14.36,21.34-27.12,34.86-37.95,13.95-11.16,30.2-20.57,48.29-27.96,21.27-8.69,42.33-13.1,62.6-13.1,31.07,0,60.04,10.24,86.12,30.44,22.45,17.39,37.87,38.51,45.82,62.78,7.6,23.18,8.47,49.49,2.6,78.18-4.22,20.29-11.69,39.72-18.91,58.51-2.5,6.52-5.07,13.18-7.45,19.78l-.05.9v1.99c5.57,45.22,40.33,63.07,70,73.57,1.54.55,3.17,1.07,4.74,1.58,10.56,3.4,22.49,7.24,24.44,22.58l.33.15-.16,1.54.02.28-.08.21-.07.63-.12.95c1.36,15.85-12.09,28.35-34.36,31.87-5.13.81-10.4,1.22-15.66,1.22-21.48,0-43.41-6.92-61.73-19.48-2.56-1.65-6.12-3.94-7.43-4.09-.85,1.21-1.39,6.82-1.96,12.74-.61,6.31-1.45,14.95-3.14,26.23-.35,2.7-.71,5.54-.95,8.21-1.52,17.36-6.58,34.33-15.05,50.44-8.12,15.45-18.98,29.41-32.28,41.48-13.26,12.04-28.19,21.52-44.38,28.19-16.79,6.92-34.09,10.45-51.43,10.49h-.35Z"/>
<path class="cls-6" d="m291.96,5c30.5,0,58.96,10.07,84.59,29.92,22.05,17.08,37.18,37.8,44.98,61.58,7.46,22.77,8.31,48.64,2.52,76.9-4.18,20.08-11.61,39.41-18.79,58.11-2.54,6.6-5.16,13.42-7.6,20.17l-.07,1.34v2.21c5.69,46.69,41.29,65.02,71.67,75.77,1.58.56,3.22,1.09,4.81,1.6,10.63,3.42,21.63,6.97,22.86,21.84l-.02.05h.02s-.09.85-.09.85l-.15,1.19c1.41,14.57-11.24,26.12-32.23,29.45-5,.79-10.14,1.19-15.27,1.19-20.98,0-42.41-6.76-60.32-19.04-4.44-2.86-7.18-4.53-8.97-4.53-4.57,0-2.93,10.94-7.45,41.11-.36,2.77-.73,5.64-.97,8.36-1.49,17.03-6.46,33.68-14.77,49.49-7.98,15.19-18.67,28.92-31.75,40.79-13.04,11.84-27.73,21.17-43.65,27.73-16.49,6.8-33.47,10.26-50.49,10.3h-.35c-2.13,0-4.29-.06-6.41-.17-2.24-.12-3.58-.35-4.23-1.26-.59-.82-.56-2.09.09-4.38,6.07-21.36-2.11-40.07-11.85-57.1l-.02-.04c-.32-.83-1.03-2.36-1.15-2.62l-3.4-3.94c-20.84-24.19-42.39-49.2-59.5-76.16-9.21-14.52-16.44-28.43-22.1-42.54-6.35-15.83-10.57-31.49-12.91-47.88-4.33-30.33-24.58-43.19-28.77-47.89-26.28-23.02-36.91-33.18-56.15-62.99-15.43-23.91-19.82-51.07-18.96-79.86.06-2.04.47-4.09.87-6.07.18-.91.37-1.86.52-2.79,1.17-10.37,5.8-16.29,14.15-18.08,1.26-.27,2.49-.41,3.64-.41,8.3,0,12.26,7.15,14.52,12.54,13,30.98,35.52,49.87,66.92,56.14,3.17.63,2.94,2.99,2.76,4.88-.22,2.3-.44,4.59-.67,6.89-.46,4.72-.94,9.59-1.37,14.39-.15,1.65.18,3.01.96,3.93.72.85,1.81,1.33,3.24,1.42.15,0,.29.01.43.01,2.4,0,3.57-1.42,3.92-4.75,2.03-19.33,5.78-37.39,11.13-53.68,5.56-16.92,13.01-32.42,22.16-46.08,9.47-14.14,21.03-26.72,34.35-37.38,13.76-11.01,29.8-20.3,47.68-27.6,20.97-8.57,41.71-12.91,61.65-12.91m0-5c-20.59,0-41.97,4.47-63.54,13.28-18.32,7.48-34.77,17.01-48.91,28.33-13.72,10.98-25.62,23.94-35.38,38.51-9.4,14.04-17.05,29.95-22.76,47.3-3.19,9.7-5.82,20.01-7.86,30.82-.07-.65-.2-1.34-.44-2.03-.55-1.58-2.12-4.37-6.37-5.22-29.67-5.93-50.97-23.82-63.29-53.17-1.62-3.86-6.55-15.6-19.13-15.6-1.5,0-3.08.18-4.69.52-7.24,1.56-16.24,6.69-18.05,22.28-.13.81-.31,1.67-.47,2.5-.42,2.08-.89,4.44-.96,6.9-1.02,33.97,5.26,60.26,19.76,82.72,19.19,29.74,29.65,40.02,56.85,63.86.85.91,1.96,1.9,3.34,3.12,6.69,5.94,20.62,18.29,23.99,41.9,2.39,16.79,6.72,32.83,13.22,49.04,5.77,14.39,13.14,28.57,22.52,43.35,17.3,27.27,38.98,52.42,59.93,76.75l2.94,3.41c.3.65.59,1.32.73,1.67l.07.18.08.18.08.18.12.21c9.2,16.08,16.94,33.67,11.38,53.25-.78,2.74-1.31,5.91.65,8.66,2.18,3.04,5.85,3.23,8.04,3.35,2.21.11,4.45.17,6.67.17h.35c17.67-.04,35.3-3.64,52.39-10.68,16.46-6.78,31.63-16.42,45.11-28.65,13.52-12.27,24.56-26.46,32.81-42.17,8.62-16.4,13.78-33.69,15.33-51.38.23-2.6.59-5.4.94-8.11,1.7-11.32,2.53-19.98,3.15-26.3.36-3.72.71-7.29,1.09-9.56,1.45.82,3.26,1.99,4.47,2.76,18.72,12.82,41.12,19.87,63.08,19.87,5.39,0,10.79-.42,16.05-1.26,11.27-1.78,20.64-5.85,27.11-11.75,6.69-6.11,10.01-14.1,9.37-22.53l.08-.67v-.03s0-.03,0-.03l.04-.36.16-.45-.05-.55.34-3.03-.74-.35c-2.65-15.81-15.51-19.95-25.96-23.32-1.55-.5-3.16-1.02-4.67-1.55-28.96-10.25-62.87-27.63-68.33-71.38v-1.77s.02-.46.02-.46c2.35-6.47,4.86-13.02,7.3-19.36,7.27-18.91,14.77-38.44,19.03-58.92,5.97-29.14,5.07-55.88-2.67-79.48-8.11-24.75-23.82-46.28-46.67-63.98C353.08,10.42,323.59,0,291.96,0h0Z"/>
</g>
<path class="cls-4" d="m496.25,353.65c-1.41-16.9-15.5-18.94-27.47-23.17-36.99-13.09-66.63-32.99-71.86-76.04,0-.75,0-1.5,0-2.25.02-.46.05-.92.08-1.39q-2.95-9.85,0,0c9.36-25.91,20.74-51.13,26.39-78.28,11.34-55.38-2.25-103.22-47.39-138.18C331.62-.02,280.82-3.37,230.05,17.37c-72.86,29.76-107.12,88.4-115.12,164.49-.32,3.05-1.38,5.24-4.68,5.01-3.3-.22-4.79-2.43-4.49-5.69.65-7.1,1.36-14.19,2.04-21.28.2-2.08.31-3.99-2.51-4.55-32.64-6.52-54.42-26.01-67.14-56.32-3.29-7.85-8.21-14.01-17.81-11.95-9.23,1.98-12.92,9.03-13.91,17.83,1.46,50.16,51.61,99.43,97.28,107.87,2.84.49,4.57,1.47,3.21,12.38-3.29,26.52-1.76,52.84,2.01,79.26,9.97,69.92,54.35,119.86,97.86,170.4,0,0,.82,1.75,1.18,2.68,10.2,17.83,17.86,36.27,11.88,57.34-1.27,4.48-.15,5.05,3.86,5.25,71.93,3.72,140.77-55.96,147.06-127.88,1.2-13.73,5.54-29.52-2.28-40.73-11.6-16.63-22.85-32.9-28.97-52.35-1.02-10.3-2.15-20.6-2.99-30.92-.23-2.85,1.15-5.38,4.51-5.22,3.09.14,4.23,2.22,4.53,5.32.73,7.54,1.84,15.03,2.8,22.55.24.74.49,1.49.73,2.23h0c14.09,16.12,29.12,31.15,49.21,39.78,24.85,10.68,50.19,19.02,77.92,14.44,8.13-1.34,14.62-5.29,19.77-11.62.05-.4.1-.8.15-1.2-.04-.2-.12-.41-.12-.61,0-.08.14-.16.22-.24ZM164.91,113.42c-1.17-17.97,16.84-50.5,31.8-55.2,11.43-3.59,16.04,2.46,18.69,11.77,5.59,19.66-7.33,50.16-25.34,60.31-14.37,8.1-25.21.83-25.15-16.89Zm110.12,59.63c-5.13,18.87-28.4,35.23-49.79,35.07-28.21-.21-48.78-29.16-39.63-56.09,2.32-6.84,7.63-8.56,12.7-3.22,18.66,19.67,40.33,22.12,64.49,12.43,3.47-1.39,6.94-2.55,10.11.61,3.24,3.23,3.22,7.18,2.13,11.2Zm48.63-17.33c-7.28,6.52-15.8,9.19-25.27,5.41-9.48-3.78-13.39-11.83-13.8-21.35-.8-18.3,5.51-34.13,18.81-46.76,7.52-7.15,16.25-13.14,27.22-8.45,11.37,4.87,13.05,15.45,13.26,27.23-.74,16.8-6.93,32.02-20.22,43.91Z"/>
<path class="cls-5" d="m6.42,104.92c1.46,50.16,40.84,99.12,86.5,107.56-8.99,11.79-10.14,25.96-12.19,39.88-.12.84,1.2,5.15-2.24,2.27C34.6,217.82,3.22,174.4,5.04,113.74c.09-2.95.91-5.88,1.38-8.82Z"/>
<path class="cls-2" d="m6.42,104.92c1.46,50.16,51.61,99.43,97.28,107.87-6.36-1.43-5.79,59.64-5.79,59.64,0,0-1.15,2.07-3.88-1.78-7.39-7.62-11.93-12.27-19.22-18.75C26.51,209.22,3.98,169.03,5.04,113.74c.06-2.95.91-5.88,1.38-8.82Z"/>
<path class="cls-7" d="m206.89,474.72c.36.93.71,1.86,1.07,2.79-.36-.93-.71-1.86-1.07-2.79Z"/>
<path class="cls-3" d="m396.92,254.44c0-.75,0-1.5,0-2.25,0,.75,0,1.5,0,2.25Z"/>
<path class="cls-3" d="m348.37,310.88c.24.74.49,1.49.73,2.23-.24-.74-.49-1.49-.73-2.23Z"/>
<path class="cls-1" d="m343.88,111.82c-.74,16.8-6.93,32.02-20.22,43.91-7.28,6.52-15.8,9.19-25.27,5.41-9.48-3.78-13.39-11.83-13.8-21.35-.8-18.3,5.51-34.13,18.81-46.76,7.52-7.15,16.25-13.14,27.22-8.45,11.37,4.87,13.05,15.45,13.26,27.23Z"/>
<path class="cls-1" d="m225.24,208.13c-28.21-.21-48.78-29.16-39.63-56.09,2.32-6.84,7.63-8.56,12.7-3.22,18.66,19.67,40.33,22.12,64.49,12.43,3.47-1.39,6.94-2.55,10.11.61,3.24,3.23,3.22,7.18,2.13,11.2-5.13,18.87-28.4,35.23-49.79,35.07Z"/>
<path class="cls-1" d="m164.91,113.42c-1.17-17.97,16.84-50.5,31.8-55.2,11.43-3.59,16.04,2.46,18.69,11.77,5.59,19.66-7.33,50.16-25.34,60.31-14.37,8.1-25.21.83-25.15-16.89Z"/>
<g>
<path class="cls-1" d="m335.13,166.82c-.44,0-.88-.17-1.22-.5-.67-.67-.67-1.76,0-2.44l10.34-10.34c.67-.67,1.76-.67,2.44,0,.67.67.67,1.76,0,2.44l-10.34,10.34c-.34.34-.78.5-1.22.5Z"/>
<path class="cls-1" d="m347.19,166.82c-.44,0-.88-.17-1.22-.5-.67-.67-.67-1.76,0-2.44l10.34-10.34c.67-.67,1.76-.67,2.44,0s.67,1.76,0,2.44l-10.34,10.34c-.34.34-.78.5-1.22.5Z"/>
</g>
<g>
<path class="cls-1" d="m139.01,121.77c-.38,0-.77-.15-1.06-.44-.59-.59-.59-1.54,0-2.12l9.01-9.01c.59-.59,1.54-.59,2.12,0s.59,1.54,0,2.12l-9.01,9.01c-.29.29-.68.44-1.06.44Z"/>
<path class="cls-1" d="m149.52,121.77c-.38,0-.77-.15-1.06-.44-.59-.59-.59-1.54,0-2.12l9.01-9.01c.59-.59,1.54-.59,2.12,0s.59,1.54,0,2.12l-9.01,9.01c-.29.29-.68.44-1.06.44Z"/>
</g>
<path class="cls-2" d="m206.81,474.83c-5.54-17.03-15.98-31.5-24.74-46.8-20.18-35.25-34.49-72.37-38.6-113.04-.11-1.12.52-2.31.8-3.46.43.55,1.1,1.04,1.26,1.66,13.09,51.29,41.51,94.64,70.65,137.75,14.93,22.08,24.34,46.02,17.64,73.62-.9,3.72,2.15,1.36,2.96.96,26.99-13.39,36.23-37.37,37.83-65.26,2.15-37.65-7.59-73.66-16.5-109.73-.22-.88-.15-1.83-.22-2.74.36.48.84.92,1.06,1.46,17.03,43.32,32.97,86.9,30.77,134.61-.21,4.48-1,8.94-1.66,13.39-.39,2.64-1.06,5.24-1.6,7.86,2.53-1.31,5.23-2.37,7.57-3.97,32.7-22.37,43.2-55.51,44.53-92.88,1.05-29.68-4.84-59.45.99-89.08,6.11,19.44,17.37,35.72,28.97,52.35,7.82,11.21,3.49,26.99,2.28,40.73-6.3,71.92-75.13,131.6-147.06,127.88-4.01-.21-5.13-.78-3.86-5.25,5.98-21.07-1.69-39.51-11.88-57.34-.36-.93-1.18-2.68-1.18-2.68Z"/>
<path class="cls-2" d="m349.1,313.1c14.09,16.12,29.12,31.16,49.21,39.79,24.85,10.68,50.19,19.02,77.92,14.44,8.13-1.34,14.62-5.29,19.77-11.62,1.41,14.36-11.2,25.86-31.97,29.15-47.98,7.59-98.09-21.91-113.9-67.09-.52-1.49-.69-3.11-1.03-4.67Z"/>
</g>
</g>
</svg>
