<?xml version="1.0" encoding="UTF-8"?>
<svg id="Layer_2" xmlns="http://www.w3.org/2000/svg" viewBox="0 0 500.43 508.77">
<defs>
<style>
.cls-1 {
fill: #e086bc;
}
.cls-2 {
fill: #fff;
}
.cls-3 {
fill: #e6e6e6;
}
</style>
</defs>
<g id="Layer_2-2" data-name="Layer_2">
<g id="Layer_1-2">
<path class="cls-2" d="M497.85,275.04c-9.83-47.64-44.9-85.24-82.27-114.18-16.2-12.14-33.72-22.04-52.34-29.79-5.51-2.3-8.18-5.74-9.84-10.84C331.15,42.37,244.13-11.5,165.8,18.39c-71.35,21.68-103.11,101.9-94.66,171.34.16,1.59.29,3.17-1.05,4.62-25.01,27.44-41.82,61.58-51.93,97.18-15.21,50.28-14.49,133.58,48.98,147.44,40.59,6.85,43.53-57.39,1.32-46.21-10.22-1.01-5.16-19.78,1.77-23.06,8.31-4.94,8.2,5.98,11.67,10.42,25.65,22.99,46.12-11.85,29.35-35.52-4.07-10.76-19.74-13.34-20.97-23.02-.98-3.18,3.97-28.3,8-22.08,9.65,22.55,19.29,47.41,31.93,67.27,25.83,44.73,115.08,119.4,108,142,31.31-1.55,157.44-2.34,133-273.49,31.03,26.12,12.81,21.45,8.61,51.06-5.35,40.05,42.8,46.86,43.52,10.68-.07-14.76,24.59-4.98,23.41,9.25-5.28,6.95-18.39,5.15-22.08,18.78-5.83,58.74,92.79,29.84,73.19-50.01Z"/>
<g>
<path class="cls-2" d="M487.33,264.91c-9.78-47.46-44.74-84.91-81.96-113.74-16.14-12.09-33.6-21.96-52.15-29.68-5.49-2.29-8.15-5.72-9.8-10.8C321.26,33.14,234.57-20.56,156.55,9.22,85.47,30.82,53.83,110.73,62.26,179.9c.16,1.59.29,3.16-1.05,4.6-24.92,27.34-41.64,61.35-51.72,96.81-15.15,50.07-14.44,133.07,48.78,146.88,40.43,6.83,43.37-57.18,1.32-46.03-10.19-1-5.14-19.7,1.76-22.97,8.28-4.92,8.17,5.95,11.63,10.37,25.55,22.9,45.95-11.82,29.24-35.39-12.82-20.91-32.04-11.88-14.3-46.4,20.64,39.3,30.68,79.46,68.67,106.23,70.14,64.22,71.29,73.72,74.06,99.51,30.62,4.54,138.88-11.19,130.56-268.25,30.91,26.01,12.78,21.35,8.58,50.85-5.33,39.91,42.66,46.66,43.36,10.63-.06-14.71,24.5-4.97,23.32,9.21-5.26,6.93-18.31,5.12-22,18.71-5.81,58.56,92.46,29.64,72.9-49.78l-.02.03Z"/>
<path class="cls-2" d="M174.93,160.02c-2.22,54.15-72.66,36.76-79.8-3.24-4.45-14.32-.8-36.15,16.67-29.2,18.71,12.26,37.04,27.95,60.25,30.06,1.59.17,2.85.37,2.88,2.39h0Z"/>
<path class="cls-2" d="M267.53,96.58c42.28,43.61-40.26,116.31-71.13,57.05-.52-1.1-.37-2.06.73-2.66,18.64-10.25,29.25-28.09,41.76-44.14,6.35-9.88,17.48-20.42,28.65-10.23v-.02Z"/>
<path d="M278.52,119.96c5.03,39.99-47.32,76.02-77.21,42.2-1.82-2.8-6.87-8.25-4.19-11.2,18.64-10.25,29.25-28.09,41.76-44.14,14.1-25.99,38.38-11.77,39.65,13.16v-.02Z"/>
<path d="M174.93,160.02c-2.22,54.15-72.66,36.76-79.8-3.24-4.45-14.32-.8-36.15,16.67-29.2,18.71,12.26,37.04,27.95,60.25,30.06,1.59.17,2.85.37,2.88,2.39h0Z"/>
<g>
<path class="cls-1" d="M112.87,149.02c7.51,6.12-3.39,17.04,4.59,23.06,5.12,5.01,12.67-.41,10.67-6.76-3.38-8.75-1.3-18.35,5.76-24.66,4.27-5.64,37.88-19.44,19.64-4.14-5.49,3.79-9.91,8.37-9.93,15.5.42,5.68,2.19,32.76,11.43,26.66,5.47-4.59.75-18.29,10.37-18.9-1.32,11.02,4.29,21.87.7,32.74-3.47,11.43-19.16,22.3-29.15,19.67-18.19,3.99-38.04-12.5-37.94-31.22-1.58-13.2,10.56-20.61,13.87-31.96h-.01Z"/>
<polygon class="cls-1" points="93.58 129.7 93.53 129.78 93.44 129.66 93.58 129.7"/>
<path class="cls-1" d="M112.65,148.93c.07-.06.15-.12.22-.18.06.25.01.29-.22.18h0Z"/>
</g>
<g>
<path class="cls-1" d="M274.7,133.58c-3.1-2.75-4.11-6.73-5.5-10.2-2.66.83-3.18,5.1-2.66,7.59,6.78,13.68-5.84,25.44-11.83,12.14,1.4-13.46,1.91-28.13-12.72-34.68-7.3-3.19-26.04-11.57-11.22,2.62,16.67,14.55,1.02,24.22,1.87,43.24-13.42,3.87-4.64-18.16-16.67-19.49-18.62,86.19,98.49,53.84,58.72-1.21h.01Z"/>
<path class="cls-1" d="M215.96,134.75v-.03s-.19.05-.19.05h.21v-.06s0,.04-.02.04Z"/>
</g>
<path class="cls-2" d="M100.09,352.65c-12.23,10.75-22.71,6.21-24.57,5.27-26.32-21.69-49.87,34,.12,43.85-40.68,13.56-60.89-21.78-60.89-21.78.07.28.14.56.22.85-21.38-64.03,6.52-138.43,48-187.92,5.79,19.65,8.51,39.34,14.86,62.52-49.52,67.95,16.71,56.56,22.27,97.22h-.01Z"/>
<path class="cls-2" d="M475.58,247.26c-16.98-40.23-48.44-73.34-84.41-97.39-17.91-11.6-37.01-20.94-56.74-29.02-2.1-.85-4.16-1.82-6.16-2.89-4.47-3.7.94-7.9,5.24-5.69,13.43,1.72-29.19-62.9-36.74-65.9C229.54-19.71,123.3,2.86,80.82,83.99c-16.64,47.86-15.22,89.51-3.53,141.5,11.88,97.1,100.74,194.36,202.14,126.75,105.23-74.07,1.52-201.45,103.68-145.25,18.69,12.14,17.19,38.71,6.67,43.78-10.28,11.15-16,26.39-10.31,41.23,31.8,4.21,21.97-15.03,41.26-17.72,28.59-2.33,30.23,33.58,11.7,48.07,31.68,1.14,46.63-27.54,50.3-35.89.46-13.23-2.18-26.31-7.15-39.2ZM156.25,191.6c-34.57,15.41-74.58-28.9-59.7-59.88,11.08-18.24,38.27,16.51,53.51,19.79,5.3,4.46,24.84,4.67,24.86,8.49.27,14.61-8.3,26.78-18.67,31.6ZM278.52,119.96c5.03,40-47.31,76-77.21,42.19-1.81-2.79-6.87-8.26-4.19-11.21,18.65-10.25,29.25-28.08,41.76-44.13,14.09-26,38.39-11.78,39.64,13.15Z"/>
<g>
<path d="M75.59,136.25c-6.26-.4,7.25-11.96,7.52-13.49,1.34-1.66,3.95.46,2.55,2.11-.63.42-9.19,11.89-10.07,11.38Z"/>
<path d="M87.1,135.18c-6.26-.4,7.25-11.96,7.52-13.49,1.34-1.66,3.95.46,2.55,2.11-.63.42-9.19,11.89-10.07,11.38Z"/>
</g>
<path d="M91.31,205.59c12.01-1.3,24.87.37,30.14,13.13,19.94,41.33,39.48,93.36,85.88,110.69,36.19,7.89,52.78-34.41,60.4-62.3,7.35-26.26,9.32-53.15,9.21-80.25-.21-14.18,11.94-21.19,25.12-17.31-16.03-23.78-39.74,19.66-52.16,29.52-81.56,72.07-124.89-17.09-159.45,4.65.28.62.58,1.24.86,1.87Z"/>
<g>
<path d="M262.73,76.51c-.24-1.39,1.52-2.45,2.63-1.54.74,1.4,13.87,8.43,11.48,10.79-.55.73-1.59.87-2.31.32-.45-.6-12.26-8.68-11.8-9.57Z"/>
<path d="M264.3,87.97c-.24-1.39,1.52-2.45,2.63-1.54.74,1.4,13.87,8.43,11.48,10.79-.55.72-1.59.87-2.31.32-.45-.6-12.26-8.68-11.8-9.57Z"/>
</g>
<g>
<path class="cls-3" d="M93.73,370.23s-12.25,7.78-18.87-13.61c0,0,.1.06.29.15,1.57,1.2,13.75,5.16,25.13-5.76,5.22,12.18-6.55,19.22-6.55,19.22Z"/>
<g>
<path class="cls-3" d="M86.08,277.97s-11.52,13.97-10.28,39.72c-12.22,2.87-28.82-28.72,1.66-63.4.39-.45.8-.9,1.21-1.35-.01,0,7.45,25.03,7.41,25.03Z"/>
<path class="cls-3" d="M71.12,420.92c-14.61,1.99-46.68-4.58-56.51-41.23-.08-.28-.15-.56-.22-.85,0,0,20.2,35.34,60.89,21.78,12.69,2.59,8.98,19.08-4.16,20.3Z"/>
<path class="cls-3" d="M389.45,249.61c-.33.16-.67.3-1.02.42-17.47-35.34-33.68-30.95-33.68-30.95,0,0,37.48,270.66-120.52,278.66-26.69-57.97-105.2-128.67-101-127-3-1-29.78-64.58-29-63.39,110.43,156.5,259.8,3.04,227.89-108.98,8.56-19.96,91.94,14.12,57.33,51.24Z"/>
<path class="cls-3" d="M397.62,303.22c-15.13,3.34-18.6-12.4-18.6-12.4,1.37.45,16.69,2.8,27.72-6.75,0,0,6.02,15.83-9.12,19.15Z"/>
<path class="cls-3" d="M483.31,283.06c.77,67.12-61.18,59.83-62.38,51.21.13.61-5.35-1.99,10.44-13.09,33.27,1.15,47.58-27.65,51.93-38.12h.01Z"/>
</g>
</g>
<path d="M487.85,265.04c-9.83-47.64-44.9-85.24-82.27-114.18-16.2-12.14-33.72-22.04-52.34-29.79-5.51-2.3-8.18-5.74-9.84-10.84C321.15,32.38,234.12-21.51,155.8,8.37,84.45,30.05,52.69,110.27,61.15,179.71c.16,1.59.29,3.17-1.05,4.62-25.01,27.44-41.82,61.58-51.93,97.18-15.19,50.29-14.48,133.58,48.99,147.44,40.59,6.85,43.53-57.39,1.32-46.21-10.22-1.01-5.16-19.78,1.77-23.06,8.31-4.94,8.2,5.98,11.67,10.42,25.65,22.99,46.12-11.85,29.35-35.52-4.07-10.76-19.74-13.34-20.97-23.02-.98-3.18,3.97-28.3,8-22.08,9.65,22.55,19.29,47.41,31.93,67.27,25.83,44.73,115.08,119.4,108,142,31.31-1.55,157.44-2.34,133-273.49,31.03,26.12,12.81,21.45,8.61,51.06-5.35,40.05,42.8,46.86,43.52,10.68-.07-14.76,24.59-4.98,23.41,9.25-5.28,6.95-18.39,5.15-22.08,18.78-5.83,58.77,92.82,29.78,73.18-49.99ZM76.65,390.41c2.7.47,7.14,9.65,1.91,5.93-5.17-5.16-11.93-3.85-17.64-7.83,5.84-.93,10.95-.82,15.73,1.9ZM94.33,338.53c14.8,19.81-6.65,48.33-19.8,19.03-25.96-21.63-50.31,33.64.38,44.01,22.74,26.16-45.75,31.91-61.09-21.5-21.19-63.88,6.75-135.25,46.37-186.18,1.25-2.33,2.99-1.01,2.75.77,5.5,25.12,12.24,55.87,19.52,82.11.52,1.53.23,3-.87,4.47-7.11,11.25-10.43,24.82-8.23,37.89,6.98,6.43,16.33,10.29,20.98,19.42l-.03-.02ZM442.91,304.18c3.99-11.68-1.82-26.13-14.28-29.57-10.19-3.32-24.46,2.14-23.36,14.52,1.38,16.94-22.97,17.84-26.79,2.54-5.83-14.97.2-30.1,10.36-41.38-8.54-41.27-76.2-46.55-40.79-29.7,6.55,1.77,4.97,1.77,6.56,14.84,23.88,245.66-107.62,255.81-115.27,256.88-37.22-55-44.1-55.92-90.52-107.98-23.22-19.78-64.93-112.92-72.64-159.63-19.15-78.42-11.52-165.76,68.08-204.48,70.29-35.14,157.09,4.39,185.61,75.43,12.4,28.21,2.03,10.11-3.87,17.86-1.76,4.74,5,5.59,8.02,7.3,19.66,8.08,38.7,17.43,56.56,29.04,22.85,14.82,42.49,33.63,59.13,55.05,18.13,23.07,33.06,51.21,32.02,81.25h0c2.1,28.06-25.07,64.24-54.82,48.32-8.12-6,16.03-20.24,16.01-30.3ZM420.16,322.23c.39-6.85,8.19-15.51,15.17-16.19-4.83,5.75-10.47,9.5-12.96,16.74-.52,2.54-3.08,2.15-2.2-.55h-.01Z"/>
</g>
</g>
</g>
</svg>
