<?xml version="1.0" encoding="UTF-8"?>
<svg id="Layer_2" data-name="Layer 2" xmlns="http://www.w3.org/2000/svg" viewBox="0 0 500 510.11">
  <defs>
    <style>
      .cls-1 {
        fill: #e6e6e6;
      }

      .cls-1, .cls-2, .cls-3, .cls-4 {
        stroke-width: 0px;
      }

      .cls-3 {
        fill: #fff;
      }

      .cls-4 {
        fill: #e086bc;
      }
    </style>
  </defs>
  <g id="Layer_1-2" data-name="Layer 1">
    <path class="cls-3" d="m498.09,274.79c-4.42-23.69-15.9-44.19-30.3-63.08-14.85-19.47-32.34-36.39-51.97-51.1-16.2-12.14-33.72-22.04-52.34-29.79-5.51-2.3-8.18-5.74-9.84-10.84-6.08-18.59-14.72-35.85-26.57-51.49-16.31-21.52-37.33-37.09-61.69-48.03-17.85-8.01-37.01-10.79-56.55-10.41-14.69.28-28.82,3.85-42.79,8.09-17.9,5.45-33.68,14.91-47.25,27.54-16.29,15.16-28.6,33.31-36.71,54.17-7.18,18.48-10.78,37.67-11.34,57.46-.31,10.73-.37,21.46.64,32.17.16,1.59.29,3.17-1.05,4.62-8.09,8.73-15.41,18.1-21.55,28.26-13.06,21.65-23.89,44.32-30.38,68.92-5.35,20.26-9.31,40.62-8.23,61.73,1.05,20.3,4.99,39.72,16.19,57.12,9.76,15.15,22.45,25.88,41.02,28.59,17.78,2.6,30.43-7.07,31.84-24.86,1.28-16.1-11.33-23.54-23.44-22.22-2.37.25-4.72.58-7.08.87-1.74.2-3.15-.05-4.11-1.9-3.5-6.69-.61-17.28,5.88-21.16,3.89-2.33,7.41-.96,8.6,3.38.68,2.5,1.35,5.02,3.07,7.04,5.62,6.59,12.81,8.62,20.96,6.33,7.82-2.21,12.7-7.65,13.98-15.74,1.48-9.35-.78-18.04-5.59-26.11-4.13-6.92-9.99-12.04-16.9-16-2.77-1.58-3.96-3.7-4.07-7.02-.27-7.89,1.82-15.1,5.25-22.05.31-.61.47-1.49,1.36-1.51.9-.02,1.05.88,1.39,1.48.35.63.6,1.31.88,1.98,9.25,22,18.83,46.01,31.05,65.29,19,30,48,60,62,74,46,51,46,57,46,68,0,3.19,10.9.83,14,0,13.07-3.5,148-12,119-273.49,6.8,6.27,13.48,11.28,17.18,19.17,1.63,3.49,1.68,6.18-.59,9.41-4.73,6.69-7.5,14.2-7.98,22.48-.45,7.54.19,14.89,3.42,21.8,3.79,8.08,11.75,13.15,19.38,12.47,12.33-1.09,22.37-10.3,20.71-23.59-.54-4.32.68-5.66,4.94-6.72,9.67-2.42,17.95,6.16,18.47,15.97.08,1.36-.89,2.01-1.99,2.47-2.2.9-4.4,1.75-6.6,2.66-6.44,2.63-11.31,6.99-13.49,13.65-4.3,13.06,4.46,27.17,18.17,30.1,19.2,4.11,43.22-9.82,51.58-31.26,6.19-15.89,6.51-32.31,3.43-48.81Z"/>
    <g>
      <path class="cls-3" d="m487.57,264.66c-4.4-23.6-15.84-44.03-30.19-62.84-14.8-19.4-32.22-36.25-51.77-50.9-16.14-12.09-33.6-21.96-52.15-29.68-5.49-2.29-8.15-5.72-9.8-10.8-6.06-18.52-14.66-35.72-26.47-51.3-16.25-21.44-37.19-36.95-61.46-47.85C237.96,3.31,218.86.54,199.41.91c-14.63.28-28.71,3.83-42.62,8.06-17.83,5.43-33.55,14.85-47.07,27.43-16.23,15.1-28.49,33.18-36.57,53.96-7.15,18.41-10.74,37.53-11.3,57.24-.31,10.69-.37,21.38.64,32.05.16,1.59.29,3.16-1.05,4.6-8.06,8.69-15.35,18.03-21.46,28.15-13.01,21.57-23.79,44.15-30.26,68.66-5.33,20.18-9.28,40.46-8.2,61.5,1.05,20.22,4.97,39.57,16.12,56.9,9.72,15.09,22.36,25.78,40.86,28.48,17.71,2.59,30.32-7.04,31.72-24.77,1.27-16.04-11.29-23.45-23.35-22.13-2.36.25-4.7.58-7.05.87-1.74.2-3.14-.05-4.1-1.89-3.49-6.67-.61-17.21,5.86-21.08,3.88-2.32,7.38-.96,8.57,3.36.68,2.49,1.35,5.01,3.06,7.01,5.6,6.56,12.76,8.59,20.88,6.3,7.79-2.2,12.65-7.62,13.93-15.68,1.47-9.31-.77-17.97-5.57-26.01-4.12-6.9-9.95-12-16.84-15.94-2.76-1.58-3.95-3.69-4.05-6.99-.27-7.86,1.81-15.04,5.23-21.97.31-.61.47-1.48,1.36-1.5.9-.02,1.05.88,1.39,1.47.34.63.6,1.31.88,1.97,9.22,21.91,18.93,43.5,31.6,63.78,18.55,29.69,7.94,16.09,34.8,39.01,66.68,56.91,68.66,78.73,74.71,91.38,1.23,2.58-1.56,5.33-.66,8.13.96,3.03,2.72,4.22,5.85,3.56,2.91-.62,5.71-1.79,8.63-2.34,12.06-2.3,129.71-21.76,116.09-269.47,6.77,6.25,13.43,11.23,17.12,19.09,1.62,3.48,1.67,6.15-.59,9.37-4.71,6.67-7.47,14.15-7.95,22.39-.45,7.51.19,14.83,3.41,21.71,3.77,8.05,11.7,13.1,19.31,12.42,12.28-1.09,22.29-10.26,20.63-23.5-.53-4.31.68-5.64,4.92-6.7,9.64-2.41,17.88,6.13,18.4,15.91.08,1.36-.89,2.01-1.99,2.46-2.19.9-4.38,1.75-6.57,2.65-6.42,2.62-11.26,6.96-13.44,13.6-4.28,13.01,4.44,27.07,18.1,29.98,19.12,4.1,43.05-9.78,51.38-31.14,6.17-15.83,6.49-32.19,3.42-48.62Z"/>
      <path class="cls-3" d="m175.17,159.77c.26,14.61-8.28,26.79-18.68,31.59-7.31,3.38-14.97,4.12-22.69,2.18-21.09-5.29-33.36-19.37-38.43-37.01-2.14-10.46-3.07-18,1.42-25.05,3.6-5.65,9.14-7.19,15.25-4.15,4.09,2.04,7.47,5.15,11.19,7.75,8.65,6.05,17.51,11.7,27.08,16.2,6.98,3.29,14.33,5.27,21.98,6.11,1.59.17,2.85.37,2.88,2.39Z"/>
      <path class="cls-3" d="m267.77,96.33c7.15,6.11,10.37,14.1,11,23.39,1.47,21.63-9.88,41.71-28.96,50.92-3.26,1.58-6.68,2.74-11.16,3.62-14.26,3.63-26.67-1.3-37.09-12.34-2.3-2.44-3.51-5.57-4.92-8.54-.52-1.1-.37-2.06.73-2.66,18.64-10.25,29.25-28.09,41.76-44.14,2.34-3.01,4.65-6.07,7.2-8.9,6.07-6.75,14.5-7.28,21.45-1.33Z"/>
      <path class="cls-2" d="m278.76,119.71c1.47,21.63-9.88,41.71-28.96,50.92-3.26,1.58-6.68,2.74-11.16,3.62-14.26,3.63-26.67-1.3-37.09-12.34-2.3-2.44-3.51-5.57-4.92-8.54-.52-1.1-.37-2.06.73-2.66,18.64-10.25,29.25-28.09,41.76-44.14,2.34-3.01,4.65-6.07,7.2-8.9,6.07-6.75,14.5-7.28,21.45-1.33,7.15,6.11,10.37,14.1,11,23.39Z"/>
      <path class="cls-2" d="m175.17,159.77c.26,14.61-8.28,26.79-18.68,31.59-7.31,3.38-14.97,4.12-22.69,2.18-21.09-5.29-33.36-19.37-38.43-37.01-2.14-10.46-3.07-18,1.42-25.05,3.6-5.65,9.14-7.19,15.25-4.15,4.09,2.04,7.47,5.15,11.19,7.75,8.65,6.05,17.51,11.7,27.08,16.2,6.98,3.29,14.33,5.27,21.98,6.11,1.59.17,2.85.37,2.88,2.39Z"/>
      <g>
        <path class="cls-4" d="m113.11,148.77l.03-.02c1.65.94,1.87,2.73,2.46,4.26,1.25,3.25-.31,6.28-.89,9.36-.7,3.74.1,6.92,2.99,9.46,2.58,2.27,5.31,2.6,7.75,1.05,2.78-1.77,3.77-4.44,2.92-7.81-.57-2.24-1.46-4.47-1.59-6.74-.39-7.07,2.15-13.07,7.35-17.92,6.56-6.11,14.94-8.56,23.09-11.47,2.02-.72,2.34.24,1.7,1.95-.95,2.54-3.08,3.95-5.15,5.38-5.49,3.79-9.91,8.37-9.93,15.5-.02,8.75,2.2,17.13,5.32,25.23,1.15,3.01,3.5,3.37,6.11,1.43,1.69-1.26,2.52-2.99,2.64-5.08.17-2.83.66-5.62,1.51-8.32,1.1-3.5,3.22-5.31,6.22-5.5-.94,6.47.9,12.71,1.64,19.03.55,4.66.32,9.21-.94,13.71-3.27,11.65-16.98,19.11-26.62,20.52-.96.14-1.89.04-2.53-.85-7.19,1.63-13.92.98-19.75-4.03-1.09.12-2.03-.31-2.9-.89-9.46-6.23-15.08-14.86-15.29-26.3-.15-8.55,3.23-16.07,8.93-22.41,2.51-2.8,4.34-5.82,4.94-9.55Z"/>
        <polygon class="cls-4" points="93.82 129.45 93.77 129.53 93.68 129.41 93.82 129.45"/>
        <path class="cls-4" d="m112.89,148.68c.07-.06.15-.12.22-.18l.03.24s-.03.02-.03.02c-.07-.03-.15-.06-.22-.08Z"/>
      </g>
      <g>
        <path class="cls-4" d="m274.94,133.33c-2.28-2.56-4.29-5.26-4.86-8.78-.08-.51.03-1.24-.64-1.42-.65-.18-1.01.4-1.32.86-1.36,2.06-1.9,4.3-1.34,6.73.61,2.66,1.36,5.3,1.91,7.97.56,2.75-.1,5.28-2.05,7.33-1.79,1.88-4,2.89-6.63,2.21-2.75-.72-4.55-2.33-5.06-5.37-.5-2.96-.25-5.81.45-8.65,1.35-5.44.47-10.6-2.05-15.47-2.46-4.77-6.59-7.86-11.12-10.56-4.78-2.85-10.35-3.45-15.34-5.66-1.72-.76-1.35.54-1.14,1.47.68,3.09,3.18,4.79,5.26,6.81,2.98,2.88,5.97,5.71,7.21,9.92,1.52,5.17.12,9.9-1.85,14.54-2.23,5.25-4.27,10.47-2.63,16.34.25.88.23,1.85-.86,2.44-2.92,1.6-7.21-.13-7.98-3.36-.43-1.83-.59-3.72-.84-5.58-.67-4.97-2.44-9.11-7.85-10.55.9,5.19-.13,10.24-1.07,15.3-.41,2.21-.65,4.47-.78,6.72-1.01,17.63,15.8,33.04,33.35,30.61,6.63.69,12.61-.92,17.89-5.03,4.45-1.34,7.5-4.46,10.31-7.95,10.48-13.01,10.13-28.39-.98-40.86Z"/>
        <path class="cls-4" d="m216.2,134.5s.01-.03.01-.03l-.2.05s.17,0,.18,0c0,0,0,0,0,0,.01,0,.02,0,.03,0,0-.02,0-.04,0-.06v.03Z"/>
      </g>
      <path class="cls-3" d="m100.33,352.4c-12.23,10.75-22.71,6.21-24.57,5.27h0c-4.77-6.48-14.94-6.46-20.38-2.16-12.3,9.75-12.07,27.79.71,37.39,3.42,2.57,7.15,4.54,11.39,5.39,2.45.49,4.73,1.45,6.99,2.49.49.23.96.47,1.41.74-40.68,13.56-60.89-21.78-60.89-21.78.07.28.14.56.22.85-2.25-5.38-4.21-10.87-5.01-16.74-1.96-14.31-3.34-28.58-1.86-43.11,2.01-19.75,6.9-38.77,13.61-57.33,5.23-14.47,12.05-28.21,19.94-41.48,5.82-9.8,12.59-18.87,19.49-27.87.48-.62.86-1.64,1.83-1.39.97.24.8,1.31.97,2.08l7.2,32.67c.39,1.94,2.91,12.45,5.58,23.3.37,1.49.73,2.99,1.11,4.47h0c-30.43,34.43-13.3,63.85-3.56,63.84.65,1.37,1.9,2.36,3.36,3.18,7.22,4.06,13.33,9.23,17.72,16.44,2.66,4.36,4.19,8.93,4.75,13.76Z"/>
      <path class="cls-3" d="m475.82,247.01c-7.42-19.03-18.99-35.4-32.02-50.88-15.2-18.05-32.59-33.68-52.39-46.51-17.91-11.6-37.01-20.94-56.74-29.02-2.1-.85-4.16-1.82-6.16-2.89-1.79-.96-1.77-2.58-1.21-4.32.56-1.73,1.79-2.13,3.4-1.89,1.02.16,2.04.3,3.05.52,3.29.72,3.64.39,2.65-2.96-1.4-4.75-3.34-9.29-5.49-13.78-8.69-18.19-18.99-35.21-33.9-49.16-15.46-14.45-32.9-25.75-52.99-32.35-22.71-7.47-45.96-8.53-69.37-3.16-6.27,1.31-12.42,3.07-18.44,5.24-20.34,7.33-37.49,19.33-51.87,35.41-7.11,7.96-13.12,16.63-18.34,25.95-1.25,2.22-1.83,5.49-4.95,6.53-.42.14-.94,1.02-.16,1.06,1.78.1.79.97.58,1.57-1.75,5.22-4.34,10.12-5.88,15.44-1.36,4.64-2.68,9.35-3.6,14.02-1.27,6.42-2.43,12.89-2.82,19.53-.73,12.37-.98,24.66.12,37.02,1.57,17.8,4.5,35.41,8.23,52.86,5.19,24.27,12.93,47.73,22.15,70.8,1.64,4.11,3.35,8.18,5.14,12.21,39.34,60.35,106.68,88.71,174.85,43.74,69.52-45.85,53.05-152.71,53.05-152.71,0,0,12.26-17.48,50.64,7.46,18.69,12.14,17.19,38.71,6.67,43.78-.09.24-.22.48-.4.72-.93,1.24-1.81,2.53-2.85,3.67-6.21,6.91-9.37,14.9-9.16,24.28.1,4.39.58,8.64,2.1,12.56,1.43.3,15.47,2.94,27.06-6.35.37-1.73,1.07-3.37,2.05-4.99,2.78-4.65,7.42-5.58,12.15-6.38,10.02-1.7,20.98,5.6,23.45,15.4,2.65,10.6-.84,19.53-7.31,27.62-1.4,1.75-2.91,3.41-4.44,5.05,31.68,1.14,46.63-27.54,50.3-35.89.45-13.23-2.15-26.3-7.16-39.19Zm-319.33-55.66c-7.31,3.38-14.97,4.12-22.69,2.18-21.09-5.29-33.36-19.37-38.43-37.01-2.14-10.46-3.08-17.99,1.42-25.05,3.6-5.65,9.14-7.2,15.24-4.15,4.09,2.04,7.47,5.14,11.2,7.74,8.64,6.05,17.51,11.71,27.07,16.2,6.98,3.29,14.33,5.27,21.98,6.11,1.59.17,2.86.37,2.88,2.38.26,14.6-8.28,26.79-18.67,31.59Zm122.27-71.64c1.48,21.63-9.88,41.71-28.95,50.92-3.27,1.58-6.68,2.73-11.16,3.61-14.26,3.63-26.67-1.3-37.1-12.34-2.3-2.44-3.5-5.57-4.92-8.55-.53-1.1-.37-2.06.73-2.66,18.65-10.25,29.25-28.08,41.76-44.13,2.35-3.02,4.65-6.07,7.19-8.9,6.08-6.75,14.5-7.28,21.46-1.34,7.16,6.11,10.36,14.11,10.99,23.39Z"/>
      <g>
        <path class="cls-2" d="m75.83,136c-.42.04-.86-.08-1.21-.37-.7-.58-.8-1.62-.22-2.33l8.95-10.79c.58-.7,1.62-.8,2.33-.22s.8,1.62.22,2.33l-8.95,10.79c-.29.35-.7.55-1.12.59Z"/>
        <path class="cls-2" d="m87.34,134.93c-.42.04-.86-.08-1.21-.37-.7-.58-.8-1.62-.22-2.33l8.95-10.79c.58-.7,1.62-.8,2.33-.22s.8,1.62.22,2.33l-8.95,10.79c-.29.35-.7.55-1.12.59Z"/>
      </g>
      <path class="cls-2" d="m91.55,205.34c3.76-.09,7.57-.59,11.27-.18,8.64.98,15.02,4.77,18.87,13.31,7.56,16.75,15.25,33.53,24.29,49.51,9.96,17.62,21.64,34.28,37.44,47.5,7.16,5.99,14.77,11.51,24.15,13.68,14.92,3.45,26.99-1.78,36.74-12.82,12.59-14.24,18.67-31.66,23.66-49.48,7.35-26.26,9.32-53.15,9.21-80.25-.05-12.86,9.93-20.69,22.66-17.75.75.17,1.53.27,2.46.44-1.74-5.51-7.74-8.73-14.15-6.24-5.24,2.03-10.39,5.41-14.33,9.4-8.29,8.41-15.12,18.27-23.68,26.36-24.79,23.43-53.96,33.21-87.95,25.1-15.31-3.65-28.39-12.32-42.03-19.64-6.91-3.71-14.17-6.18-22.1-4.5-2.6.55-4.92,2.42-7.37,3.69.28.61.57,1.22.85,1.84Z"/>
      <g>
        <path class="cls-2" d="m262.97,76.26c-.06-.42.05-.86.32-1.22.55-.73,1.59-.87,2.31-.32l11.16,8.48c.73.55.87,1.59.32,2.31-.55.73-1.59.87-2.31.32l-11.16-8.48c-.36-.28-.58-.67-.64-1.09Z"/>
        <path class="cls-2" d="m264.54,87.72c-.06-.42.05-.86.32-1.22.55-.73,1.59-.87,2.31-.32l11.16,8.48c.73.55.87,1.59.32,2.31s-1.59.87-2.31.32l-11.16-8.48c-.36-.28-.58-.67-.64-1.09Z"/>
      </g>
      <g>
        <path class="cls-1" d="m93.97,369.98s-12.25,7.78-18.87-13.61c0,0,.1.06.29.15h0c1.86.95,12.34,5.49,24.57-5.26.19-.16.37-.33.56-.5,5.22,12.18-6.55,19.22-6.55,19.22Z"/>
        <g>
          <path class="cls-1" d="m86.32,277.72s-11.52,13.97-10.28,39.72c-.59.29-1.23.44-1.9.44-9.74,0-26.88-29.42,3.56-63.84h0c.39-.45.8-.9,1.21-1.35l7.42,25.02Z"/>
          <path class="cls-1" d="m71.36,420.67c-14.6,1.98-46.66-4.55-56.5-41.21,0,0,0-.02-.01-.02-.08-.28-.15-.56-.22-.85,0,0,20.2,35.34,60.89,21.78.19-.06.37-.12.56-.19,12.14,4.22,8.13,18.91-4.71,20.49Z"/>
          <path class="cls-1" d="m389.69,249.36c-.33.16-.67.3-1.02.42-17.47-35.34-33.68-30.95-33.68-30.95,0,0,37.48,270.66-120.52,278.66,0,0-1.38-7.06-2-8-38.78-59.24-99-119-99-119-3-1-29.78-64.58-29-63.39,39.34,60.34,106.68,88.7,174.85,43.74,69.52-45.85,53.05-152.72,53.05-152.72,0,0,12.26-17.48,50.65,7.46,18.69,12.14,17.18,38.72,6.67,43.78Z"/>
          <path class="cls-1" d="m397.86,302.97c-15.13,3.34-18.6-12.4-18.6-12.4,0,0,.04.01.12.02,1.44.3,15.48,2.95,27.07-6.34.18-.13.35-.28.53-.43,0,0,6.03,15.81-9.11,19.15Z"/>
          <path class="cls-1" d="m483.55,282.81c.77,67.12-61.18,59.83-62.38,51.21.13.61-5.35-1.99,10.44-13.09.24.01.47.02.7.03,31.69,1.14,46.63-27.54,50.3-35.89.63-1.42.93-2.26.93-2.26Z"/>
        </g>
      </g>
      <path class="cls-2" d="m488.09,264.79c-4.42-23.69-15.9-44.19-30.3-63.08-14.85-19.47-32.34-36.39-51.97-51.1-16.2-12.14-33.72-22.04-52.34-29.79-5.51-2.3-8.18-5.74-9.84-10.84-6.08-18.59-14.72-35.85-26.57-51.49-16.31-21.52-37.33-37.09-61.69-48.03C237.53,2.44,218.36-.34,198.83.03c-14.69.28-28.82,3.85-42.79,8.09-17.9,5.45-33.68,14.91-47.25,27.54-16.29,15.16-28.6,33.31-36.71,54.17-7.18,18.48-10.78,37.67-11.34,57.46-.31,10.73-.37,21.46.64,32.17.16,1.59.29,3.17-1.05,4.62-8.09,8.73-15.41,18.1-21.55,28.26-13.06,21.65-23.89,44.32-30.38,68.92C3.06,301.52-.9,321.88.18,342.99c1.05,20.3,4.99,39.72,16.19,57.12,9.76,15.15,22.45,25.88,41.02,28.59,17.78,2.6,30.43-7.07,31.84-24.86,1.28-16.1-11.33-23.54-23.44-22.22-2.37.25-4.72.58-7.08.87-1.74.2-3.15-.05-4.11-1.9-3.5-6.69-.61-17.28,5.88-21.16,3.89-2.33,7.41-.96,8.6,3.38.68,2.5,1.35,5.02,3.07,7.04,5.62,6.59,12.81,8.62,20.96,6.33,7.82-2.21,12.7-7.65,13.98-15.74,1.48-9.35-.78-18.04-5.59-26.11-4.13-6.92-9.99-12.04-16.9-16-2.77-1.58-3.96-3.7-4.07-7.02-.27-7.89,1.82-15.1,5.25-22.05.31-.61.47-1.49,1.36-1.51.9-.02,1.05.88,1.39,1.48.35.63.6,1.31.88,1.98,9.25,22,18.83,46.01,31.05,65.29,19,30,48,60,62,74,46,51,46,57,46,68,0,3.19,10.9.83,14,0,13.07-3.5,148-12,119-273.49,6.8,6.27,13.48,11.28,17.18,19.17,1.63,3.49,1.68,6.18-.59,9.41-4.73,6.69-7.5,14.2-7.98,22.48-.45,7.54.19,14.89,3.42,21.8,3.79,8.08,11.75,13.15,19.38,12.47,12.33-1.09,22.37-10.3,20.71-23.59-.54-4.32.68-5.66,4.94-6.72,9.67-2.42,17.95,6.16,18.47,15.97.08,1.36-.89,2.01-1.99,2.47-2.2.9-4.4,1.75-6.6,2.66-6.44,2.63-11.31,6.99-13.49,13.65-4.3,13.06,4.46,27.17,18.17,30.1,19.2,4.11,43.22-9.82,51.58-31.26,6.19-15.89,6.51-32.31,3.43-48.81Zm-411.2,125.37c1.71.97,3.04,2.45,3.91,4.26.39.82.96,1.86.07,2.52-.82.62-1.51-.38-2.07-.85-3.76-3.13-8.17-4.66-12.86-5.64-1.47-.31-3.09-.33-4.78-2.19,5.84-.93,10.95-.82,15.73,1.9Zm17.68-51.88c2.66,4.36,4.2,8.94,4.76,13.76.21,1.77.29,3.59.24,5.43-.17,6.03-5.21,11.43-11.21,12.2-3.1.4-5.61-1.06-7.82-3.02-1.9-1.66-3.25-3.81-4.08-6.14-.43-1.21-1.01-2.27-1.69-3.2h0c-4.78-6.48-14.94-6.46-20.38-2.16-12.3,9.75-12.06,27.79.71,37.4,3.41,2.56,7.14,4.54,11.39,5.38,2.44.5,4.73,1.46,6.98,2.49.5.23.96.47,1.41.74,3.18,1.87,5.12,4.7,5.1,8.6-.03,4.43-3.04,7.16-6.67,8.96-7.11,3.48-14.56,2.97-21.76.61-16.28-5.3-27.45-16.33-34.21-31.89-1.05-2.39-2.1-4.78-3.11-7.19,0,0,0-.02,0-.02-2.25-5.39-4.22-10.87-5.01-16.74-1.96-14.32-3.34-28.58-1.86-43.11,2-19.75,6.89-38.77,13.61-57.33,5.23-14.47,12.05-28.21,19.94-41.48,5.82-9.8,12.59-18.86,19.48-27.86.48-.62.86-1.64,1.83-1.39.98.24.81,1.3.97,2.08l7.21,32.67c.38,1.94,2.91,12.45,5.58,23.3.36,1.5.73,2.98,1.1,4.47,1.26,5.08,2.49,9.98,3.49,13.85,1,3.86,1.75,6.7,2.08,7.63.52,1.52.45,2.82-.57,4.32-7.31,10.89-9.55,23.12-9.05,36,.02.76.2,1.44.49,2.04.65,1.36,1.9,2.35,3.37,3.18,7.21,4.06,13.33,9.22,17.71,16.44Zm348.58-34.35c.2-.64.37-1.3.52-1.97.06-.21.1-.41.13-.63.61-3.04.7-6.21.18-9.56-.05-.31-.11-.61-.15-.91-.11-.59-.25-1.19-.4-1.79-.21-.83-.48-1.64-.8-2.44-.22-.52-.46-1.04-.72-1.54-.13-.26-.28-.51-.41-.76-.24-.39-.48-.79-.73-1.16-.38-.57-.8-1.12-1.24-1.66-.36-.44-.75-.87-1.15-1.28-.3-.31-.6-.6-.92-.9-.33-.3-.65-.58-1-.86-.45-.37-.91-.72-1.39-1.05-.47-.34-.96-.64-1.46-.94-1.25-.74-2.56-1.36-3.92-1.85-.27-.1-.55-.18-.82-.27,0,0,0,0-.02,0-2.88-.9-5.92-1.18-8.87-.68-.59.1-1.18.2-1.76.32-.88.16-1.74.35-2.59.58-.99.27-1.95.59-2.85,1.03-.52.24-1.02.52-1.5.83-.36.23-.71.49-1.05.78-.23.19-.45.39-.66.6-.34.32-.64.66-.92,1.04-.3.37-.57.78-.83,1.21-.24.4-.47.81-.67,1.22-.62,1.22-1.09,2.46-1.37,3.77-.26,1.22-.35,2.47-.27,3.82.39,6.31-2.59,10.79-8.59,13.17-4.35,1.72-10.93-.13-14.34-4.12-1.74-2.03-2.98-4.21-3.86-6.51h0c-.31-.8-.57-1.59-.8-2.4-.12-.45-.24-.91-.35-1.37-.06-.26-.12-.52-.16-.78-.11-.52-.2-1.04-.28-1.56-.33-2.1-.47-4.27-.52-6.46-.06-2.56.13-5.02.58-7.38.1-.53.21-1.05.33-1.56.25-1.03.54-2.03.87-3.02.17-.5.35-.99.55-1.48.19-.5.41-1.01.63-1.5.42-.94.89-1.86,1.41-2.76,1.31-2.29,2.92-4.49,4.79-6.58.78-.85,1.47-1.79,2.15-2.73.23-.32.46-.63.69-.94.05-.06.09-.11.13-.18.05-.06.09-.12.11-.18.07-.12.13-.23.17-.35.36-.87.23-1.75-.2-2.75-4.61-10.88-11.47-19.97-21.02-27.02-6.42-4.74-13.74-6.98-21.44-8.32-1.93-.34-3.88-.59-5.83-.82-.79-.1-1.75-.2-2.2.71-.41.84.12,1.59.59,2.28,2.23,3.22,5.45,4.96,9.12,6,5.37,1.52,5.42,1.8,6.03,7.4,27.38,252.87-106.86,263.35-114.38,264.38-.97.12-1.74.34-2.25-.52-35-59-42-53-88-107-12.66-14.87-23-25-45.62-76.57,0-.02,0-.03-.02-.05-.45-1.01-.89-2.01-1.33-3.03-.87-2.02-1.74-4.06-2.57-6.1-.42-1.03-.83-2.05-1.25-3.08-5.76-14.42-10.95-29-15.28-43.82-2.61-8.9-4.91-17.88-6.86-26.98-.7-3.27-1.37-6.55-2.01-9.83-1.72-8.75-3.19-17.55-4.38-26.39-.44-3.32-.84-6.64-1.2-9.97-.24-2.21-.46-4.44-.65-6.66-1.09-12.36-.84-24.65-.11-37.02.38-6.64,1.54-13.11,2.82-19.52.23-1.17.49-2.34.76-3.51.56-2.34,1.18-4.68,1.83-7.02.34-1.17.67-2.33,1.01-3.49,1.55-5.32,4.13-10.21,5.89-15.44.21-.61,1.2-1.47-.59-1.57-.77-.05-.26-.92.16-1.06.78-.26,1.4-.66,1.91-1.15.13-.12.25-.25.37-.38.35-.39.64-.82.9-1.28.35-.61.63-1.27.91-1.9.28-.63.55-1.26.86-1.81,1.3-2.33,2.66-4.62,4.07-6.87,4.23-6.74,8.94-13.12,14.27-19.08,1.79-2,3.63-3.95,5.52-5.83.94-.95,1.89-1.87,2.86-2.78,9.66-9.09,20.41-16.52,32.38-22.18,1.2-.57,2.41-1.11,3.63-1.65,2.44-1.05,4.94-2.04,7.48-2.96,2.25-.82,4.54-1.57,6.83-2.27,3.83-1.16,7.69-2.16,11.61-2.97,23.42-5.36,46.66-4.31,69.37,3.16,16.95,5.57,32.02,14.48,45.59,25.81,1.01.84,2,1.69,2.99,2.56,1.49,1.29,2.95,2.63,4.4,3.98,14.91,13.95,25.21,30.97,33.91,49.16.81,1.69,1.58,3.38,2.31,5.08.49,1.13.96,2.28,1.39,3.43.66,1.74,1.27,3.49,1.78,5.27.57,1.91.69,2.84.09,3.15-.11.06-.24.1-.4.12-.51.05-1.27-.08-2.34-.31-.76-.15-1.52-.28-2.28-.39-.26-.04-.51-.08-.77-.12-.53-.09-1.03-.1-1.47,0-.12.03-.25.06-.37.1-.19.08-.37.16-.55.29-.11.08-.21.16-.31.27l-.07.07c-.05.06-.11.12-.14.19-.2.26-.36.59-.49.98-.57,1.74-.58,3.36,1.21,4.31,2,1.07,4.07,2.04,6.17,2.9,19.72,8.07,38.83,17.42,56.74,29.02,13.62,8.82,26.09,18.97,37.49,30.31,5.19,5.16,10.15,10.56,14.9,16.21,2.45,2.9,4.83,5.83,7.15,8.8h0c1.55,1.99,3.07,3.99,4.55,6.01,4.95,6.76,9.49,13.78,13.43,21.17.5.91.97,1.82,1.44,2.75.86,1.69,1.68,3.39,2.47,5.12,1.05,2.3,2.03,4.63,2.96,7.01.58,1.5,1.13,2.99,1.65,4.49,1.03,2.99,1.92,5.99,2.68,9.01,2.13,8.5,3.13,17.06,2.84,25.69h0c-.22,6.83-1.24,13.68-3.15,20.59-4.38,15.91-15.36,25.82-30.89,30.71-5.65,1.76-11.48,1.13-17.07-.8-1.33-.46-2.62-1.28-3.71-2.18-2.6-2.12-2.89-4.07-.73-6.64,1.67-1.99,3.47-3.88,5.24-5.8.38-.41.76-.82,1.14-1.24,1.13-1.25,2.24-2.5,3.3-3.82,3.2-4.01,5.68-8.22,7.03-12.74Zm-22.75,18.05c.39-6.85,8.19-15.51,15.17-16.19-1.52,1.69-2.52,3.02-3.72,4.11-3.95,3.59-7.37,7.52-9.24,12.63-.3.81-.66,2.05-1.8,1.68-.92-.3-.45-1.46-.4-2.23Z"/>
    </g>
  </g>
</svg>